# xmcd
#
# Track frame offsets: 
#        150
#        7962
#        20589
#        31866
#        41179
#        50757
#        73430
#        85212
#        106321
#        120905
#        131745
#        143585
#        156493
#        165919
#        181598
#        194815
#        205196
#        215443
#        227108
#        240288
#
# Disc length: 3426 seconds
#
# Revision: 4
# Processed by: cddbd v1.5.2PL0 Copyright (c) Steve Scherf et al.
# Submitted via: ExactAudioCopy v0.99pb4
#
DISCID=130d6014
DTITLE=Various Artist - Country Gold [CD 01]
DYEAR=1900
DGENRE=Country
TTITLE0=Freddy Fender - Breaking Up Is Hard To Do
TTITLE1=Conway Twitty - Reputation
TTITLE2=Barbara Fairchild - I'm Giving Up
TTITLE3=Faron Young - Some Of Those Memories
TTITLE4=George Jones - No Show Jones
TTITLE5=John Brack and Jeff Turner - How Great Thou Art
TTITLE6=Stonewall Jackson - I Can't Get Enough Of You
TTITLE7=Tanya Tucker - Baby I'm Yours
TTITLE8=Razzy Bailey - Sometimes Late At Night
TTITLE9=Porter Wagoner - Sugar Foot Rag
TTITLE10=Oak Ridge Quartet - No One Cared So Much
TTITLE11=Patsy Cline - Life's Railway To Heaven
TTITLE12=Mickey Gilley - Wild Side Of Life
TTITLE13=Merle Haggard - Today I Started Loving You Again
TTITLE14=Kathy Mattea - Ball And Chain
TTITLE15=Johnny Cash - The Ways Of A Woman In Love
TTITLE16=Hoyt Axton - There's A Tiger In The Closet
TTITLE17=Glen Yarborough - Banks Of The Ohio
TTITLE18=Ronnie McDowell - Cry To Me
TTITLE19=Terri Gibbs - Rich Man
EXTD=
EXTT0=
EXTT1=
EXTT2=
EXTT3=
EXTT4=
EXTT5=
EXTT6=
EXTT7=
EXTT8=
EXTT9=
EXTT10=
EXTT11=
EXTT12=
EXTT13=
EXTT14=
EXTT15=
EXTT16=
EXTT17=
EXTT18=
EXTT19=
PLAYORDER=
